<svg xmlns="http://www.w3.org/2000/svg" width="176.169" height="34.728" viewBox="0 0 176.169 34.728">
  <g id="img_19" transform="translate(-1149.643 -9229.098)">
    <path id="패스_67" data-name="패스 67" d="M38.764,346.428h1.281v3.1h.031c.168-.26.346-.5.514-.729l1.847-2.369h1.6L41.6,349.3l2.593,3.868H42.679l-2-3.088-.63.72v2.369H38.764Z" transform="translate(1113.998 8910.551)" fill="#4a195b"/>
    <path id="패스_68" data-name="패스 68" d="M123.257,348.472a3.255,3.255,0,0,1-3.39,3.548,3.178,3.178,0,0,1-3.254-3.429,3.293,3.293,0,0,1,3.359-3.528,3.177,3.177,0,0,1,3.285,3.408m-5.28.1c0,1.369.724,2.469,1.963,2.469s1.952-1.109,1.952-2.519c0-1.269-.661-2.479-1.952-2.479s-1.963,1.14-1.963,2.529" transform="translate(1042.415 8911.805)" fill="#4a195b"/>
    <path id="패스_69" data-name="패스 69" d="M219.5,345.949a12.865,12.865,0,0,1,1.952-.14,3.4,3.4,0,0,1,2.183.54,1.67,1.67,0,0,1,.609,1.349,1.809,1.809,0,0,1-1.281,1.689v.03a1.725,1.725,0,0,1,.987,1.3,12.947,12.947,0,0,0,.556,1.879h-1.333a9.169,9.169,0,0,1-.472-1.589c-.2-.88-.535-1.16-1.27-1.179h-.651V352.6H219.5Zm1.281,2.979h.766c.871,0,1.417-.44,1.417-1.109,0-.74-.546-1.08-1.386-1.08a3.877,3.877,0,0,0-.8.06Z" transform="translate(947.805 8911.12)" fill="#4a195b"/>
    <path id="패스_70" data-name="패스 70" d="M304.18,350.177h-2.666v1.979h2.981v1.009h-4.272v-6.737h4.115v1.01h-2.824v1.739h2.666Z" transform="translate(873.582 8910.551)" fill="#4a195b"/>
    <path id="패스_71" data-name="패스 71" d="M369.323,351.256l-.609,1.909h-1.333l2.267-6.737H371.3l2.3,6.737h-1.386l-.64-1.909Zm2.026-.93-.556-1.659c-.136-.41-.252-.87-.357-1.259h-.021c-.105.39-.21.86-.336,1.259l-.546,1.659Z" transform="translate(811.829 8910.551)" fill="#4a195b"/>
    <path id="패스_72" data-name="패스 72" d="M497.742,351.711a4.629,4.629,0,0,1-1.826.31,3.27,3.27,0,0,1-3.611-3.4,3.479,3.479,0,0,1,3.779-3.558,4.238,4.238,0,0,1,1.721.3l-.283.979a3.583,3.583,0,0,0-1.386-.26,2.3,2.3,0,0,0-2.477,2.479,2.265,2.265,0,0,0,2.467,2.429,3.774,3.774,0,0,0,1.406-.25Z" transform="translate(696.959 8911.805)" fill="#4a195b"/>
    <path id="패스_73" data-name="패스 73" d="M580.068,345.949a12.865,12.865,0,0,1,1.952-.14,3.4,3.4,0,0,1,2.183.54,1.669,1.669,0,0,1,.609,1.349,1.809,1.809,0,0,1-1.281,1.689v.03a1.725,1.725,0,0,1,.987,1.3,12.971,12.971,0,0,0,.556,1.879h-1.333a9.169,9.169,0,0,1-.472-1.589c-.2-.88-.535-1.16-1.27-1.179h-.651V352.6h-1.281Zm1.281,2.979h.766c.871,0,1.417-.44,1.417-1.109,0-.74-.546-1.08-1.386-1.08a3.877,3.877,0,0,0-.8.06Z" transform="translate(616.259 8911.12)" fill="#4a195b"/>
    <path id="패스_74" data-name="패스 74" d="M664.744,350.177h-2.666v1.979h2.981v1.009h-4.272v-6.737H664.9v1.01h-2.824v1.739h2.666Z" transform="translate(542.036 8910.551)" fill="#4a195b"/>
    <path id="패스_75" data-name="패스 75" d="M729.887,351.256l-.609,1.909h-1.333l2.267-6.737h1.648l2.3,6.737h-1.386l-.64-1.909Zm2.026-.93-.556-1.659c-.136-.41-.252-.87-.357-1.259h-.021c-.1.39-.21.86-.336,1.259l-.546,1.659Z" transform="translate(480.283 8910.551)" fill="#4a195b"/>
    <path id="패스_76" data-name="패스 76" d="M817.72,347.457h-2.015v-1.03h5.343v1.03h-2.036v5.707H817.72Z" transform="translate(399.586 8910.551)" fill="#4a195b"/>
    <rect id="사각형_49" data-name="사각형 49" width="1.291" height="6.737" transform="translate(1221.987 9256.979)" fill="#4a195b"/>
    <path id="패스_77" data-name="패스 77" d="M933.791,353.165l-2.288-6.737h1.407l.966,3.059c.273.849.5,1.639.693,2.459h.021a25.34,25.34,0,0,1,.724-2.439l1.029-3.079h1.375l-2.446,6.737Z" transform="translate(293.107 8910.551)" fill="#4a195b"/>
    <path id="패스_78" data-name="패스 78" d="M1028.7,350.177h-2.666v1.979h2.981v1.009h-4.272v-6.737h4.115v1.01h-2.824v1.739h2.666Z" transform="translate(207.372 8910.551)" fill="#4a195b"/>
    <path id="패스_79" data-name="패스 79" d="M1130.2,351.711a4.63,4.63,0,0,1-1.827.31,3.27,3.27,0,0,1-3.611-3.4,3.479,3.479,0,0,1,3.779-3.558,4.239,4.239,0,0,1,1.722.3l-.283.979a3.584,3.584,0,0,0-1.386-.26,2.3,2.3,0,0,0-2.477,2.479,2.265,2.265,0,0,0,2.467,2.429,3.775,3.775,0,0,0,1.407-.25Z" transform="translate(115.402 8911.805)" fill="#4a195b"/>
    <path id="패스_80" data-name="패스 80" d="M1208.474,348.472a3.255,3.255,0,0,1-3.39,3.548,3.178,3.178,0,0,1-3.254-3.429,3.293,3.293,0,0,1,3.359-3.528,3.177,3.177,0,0,1,3.285,3.408m-5.28.1c0,1.369.724,2.469,1.963,2.469s1.952-1.109,1.952-2.519c0-1.269-.661-2.479-1.952-2.479s-1.963,1.14-1.963,2.529" transform="translate(44.537 8911.805)" fill="#4a195b"/>
    <path id="패스_81" data-name="패스 81" d="M1298.591,353.165v-6.737h1.469l1.827,2.889a18.237,18.237,0,0,1,1.207,2.259h.021c-.084-.9-.115-1.769-.115-2.8v-2.349h1.2v6.737h-1.333l-1.848-2.969a21.919,21.919,0,0,1-1.27-2.319l-.031.01c.052.87.063,1.759.063,2.869v2.409Z" transform="translate(-44.437 8910.551)" fill="#4a195b"/>
    <path id="패스_82" data-name="패스 82" d="M1380.935,347.457h-2.015v-1.03h5.343v1.03h-2.036v5.707h-1.291Z" transform="translate(-118.301 8910.551)" fill="#4a195b"/>
    <path id="패스_83" data-name="패스 83" d="M1459.947,350.177h-2.666v1.979h2.981v1.009h-4.272v-6.737h4.115v1.01h-2.824v1.739h2.666Z" transform="translate(-189.168 8910.551)" fill="#4a195b"/>
    <path id="패스_84" data-name="패스 84" d="M1523.539,353.165v-6.737h1.469l1.827,2.889a18.222,18.222,0,0,1,1.207,2.259h.021c-.084-.9-.115-1.769-.115-2.8v-2.349h1.2v6.737h-1.333l-1.847-2.969a21.832,21.832,0,0,1-1.27-2.319l-.032.01c.052.87.063,1.759.063,2.869v2.409Z" transform="translate(-251.28 8910.551)" fill="#4a195b"/>
    <path id="패스_85" data-name="패스 85" d="M1605.882,347.457h-2.015v-1.03h5.343v1.03h-2.036v5.707h-1.291Z" transform="translate(-325.144 8910.551)" fill="#4a195b"/>
    <path id="패스_86" data-name="패스 86" d="M1698.526,351.256l-.609,1.909h-1.333l2.267-6.737h1.648l2.3,6.737h-1.385l-.64-1.909Zm2.026-.93-.556-1.659c-.136-.41-.252-.87-.357-1.259h-.021c-.1.39-.21.86-.336,1.259l-.546,1.659Z" transform="translate(-410.399 8910.551)" fill="#4a195b"/>
    <path id="패스_87" data-name="패스 87" d="M1787.9,352.056a7.323,7.323,0,0,1-2.278.38,3.928,3.928,0,0,1-2.771-.9,3.251,3.251,0,0,1-.987-2.479c0-2.129,1.6-3.5,3.936-3.5a4.9,4.9,0,0,1,1.879.32l-.283.99a3.976,3.976,0,0,0-1.606-.29,2.316,2.316,0,0,0-2.572,2.419,2.281,2.281,0,0,0,2.456,2.439,2.585,2.585,0,0,0,.976-.14v-1.679H1785.4v-.969h2.5Z" transform="translate(-488.815 8911.35)" fill="#4a195b"/>
    <path id="패스_88" data-name="패스 88" d="M1877.627,350.177h-2.666v1.979h2.981v1.009h-4.272v-6.737h4.115v1.01h-2.824v1.739h2.666Z" transform="translate(-573.232 8910.551)" fill="#4a195b"/>
    <path id="패스_89" data-name="패스 89" d="M1941.22,353.165v-6.737h1.47l1.826,2.889a18.222,18.222,0,0,1,1.207,2.259h.021c-.084-.9-.115-1.769-.115-2.8v-2.349h1.2v6.737h-1.333l-1.847-2.969a21.876,21.876,0,0,1-1.27-2.319l-.031.01c.052.87.063,1.759.063,2.869v2.409Z" transform="translate(-635.347 8910.551)" fill="#4a195b"/>
    <path id="패스_90" data-name="패스 90" d="M2030.637,351.711a4.626,4.626,0,0,1-1.826.31,3.27,3.27,0,0,1-3.611-3.4,3.479,3.479,0,0,1,3.779-3.558,4.239,4.239,0,0,1,1.722.3l-.284.979a3.583,3.583,0,0,0-1.385-.26,2.3,2.3,0,0,0-2.477,2.479,2.265,2.265,0,0,0,2.467,2.429,3.775,3.775,0,0,0,1.406-.25Z" transform="translate(-712.567 8911.805)" fill="#4a195b"/>
    <path id="패스_91" data-name="패스 91" d="M2101.242,353.165v-2.809l-2.235-3.928h1.469l.85,1.729c.241.5.42.88.609,1.339h.021c.179-.43.378-.85.619-1.339l.85-1.729h1.459l-2.352,3.9v2.839Z" transform="translate(-780.435 8910.551)" fill="#4a195b"/>
    <path id="패스_92" data-name="패스 92" d="M26.991,73.852a4.748,4.748,0,1,0-4.742,4.516,4.639,4.639,0,0,0,4.742-4.516m-6.835,0a2.1,2.1,0,1,1,2.093,1.994,2.048,2.048,0,0,1-2.093-1.994" transform="translate(1133.545 9165.344)" fill="#4a195b"/>
    <path id="패스_93" data-name="패스 93" d="M1990.564,15.523a4.538,4.538,0,0,0,4.742-4.29,4.766,4.766,0,0,0-9.484,0,4.538,4.538,0,0,0,4.742,4.29m0-6.111a1.927,1.927,0,0,1,2.012,1.821,2.022,2.022,0,0,1-4.024,0,1.926,1.926,0,0,1,2.012-1.821" transform="translate(-676.358 9222.715)" fill="#4a195b"/>
    <path id="패스_94" data-name="패스 94" d="M1703.026,6.713c0,2.248,2.127,4.076,4.742,4.076s4.742-1.828,4.742-4.076a3.765,3.765,0,0,0-1.244-2.743h2.577a1.359,1.359,0,0,0,1.176-.679l.9-1.562h-6.788V0h-2.751V1.728h-6.766V3.97h4.655a3.763,3.763,0,0,0-1.244,2.743m4.742,1.73a1.889,1.889,0,0,1-2.012-1.73,2.035,2.035,0,0,1,4.024,0,1.889,1.889,0,0,1-2.012,1.73" transform="translate(-413.187 9229.098)" fill="#4a195b"/>
    <path id="패스_95" data-name="패스 95" d="M1741.724,188.243c-2.856,0-5.18,1.865-5.18,4.158s2.324,4.157,5.18,4.157,5.18-1.865,5.18-4.157-2.324-4.158-5.18-4.158m0,5.922a1.807,1.807,0,1,1,2.2-1.764,2.02,2.02,0,0,1-2.2,1.764" transform="translate(-447.143 9056.005)" fill="#4a195b"/>
    <path id="패스_96" data-name="패스 96" d="M176.382,8.181H173.62V24.1h2.762v-6.48h2.357a1.359,1.359,0,0,0,1.176-.679l1.03-1.785h-4.563Z" transform="translate(989.996 9221.575)" fill="#4a195b"/>
    <path id="패스_97" data-name="패스 97" d="M39.974,196.489h-2.8v6.655H50.2a1.357,1.357,0,0,0,1.176-.679l1.031-1.785H39.974Z" transform="translate(1115.456 9048.423)" fill="#4a195b"/>
    <path id="패스_98" data-name="패스 98" d="M298.963,22.453H285.2v2.464h10.97c0,1.564-.055,2.614-.166,4.443h-13.92v2.464h8.363v3.258h-5.8v2.486h11.569V43.11h2.795V35.082h-5.79V31.824h7.4a1.358,1.358,0,0,0,1.176-.679l1.03-1.785h-4.133c.184-3.036.277-4.907.277-6.908" transform="translate(890.264 9208.452)" fill="#4a195b"/>
    <path id="패스_99" data-name="패스 99" d="M865.952,31.622q-3.015.269-6.087.268V29.309h3.96V26.986h-3.96V24.493h5.657V22.029h-8.375V34.354q3.759,0,6.6-.149a1.356,1.356,0,0,0,1.1-.678Z" transform="translate(361.479 9208.842)" fill="#4a195b"/>
    <rect id="사각형_50" data-name="사각형 50" width="2.751" height="16.159" transform="translate(1233.634 9229.757)" fill="#4a195b"/>
    <path id="패스_100" data-name="패스 100" d="M955.279,21.813h2.839V28.83h2.751V13.838h-2.751v5.629h-2.839Z" transform="translate(271.245 9216.374)" fill="#4a195b"/>
    <path id="패스_101" data-name="패스 101" d="M907.352,196.489h-2.8v6.632H917.42a1.358,1.358,0,0,0,1.176-.679l1.044-1.808H907.352Z" transform="translate(317.885 9048.423)" fill="#4a195b"/>
    <path id="패스_102" data-name="패스 102" d="M1142.63,17.218a11.3,11.3,0,0,1-5.468,2.23L1139,21.713q5.191-1.552,7.521-4.9a10.987,10.987,0,0,0,3.261,2.919,15.624,15.624,0,0,0,4.437,1.962l1.6-2.289a11.771,11.771,0,0,1-5.474-2.236,5.841,5.841,0,0,1-2.391-3.941h4.315a1.358,1.358,0,0,0,1.176-.679l.984-1.7h-6.475V8.181h-2.795v2.662h-6.5v2.382h6.455a6.164,6.164,0,0,1-2.484,3.993" transform="translate(104 9221.575)" fill="#4a195b"/>
    <path id="패스_103" data-name="패스 103" d="M1130.407,222.14h18.984a1.359,1.359,0,0,0,1.176-.679l1.017-1.761h-21.177Z" transform="translate(110.212 9027.08)" fill="#4a195b"/>
    <path id="패스_104" data-name="패스 104" d="M1462.819,196.617h-2.8v6.6h13.352a1.358,1.358,0,0,0,1.176-.679l1.03-1.784h-12.763Z" transform="translate(-192.878 9048.305)" fill="#4a195b"/>
    <rect id="사각형_51" data-name="사각형 51" width="2.729" height="16.112" transform="translate(1278.416 9229.757)" fill="#4a195b"/>
    <path id="패스_105" data-name="패스 105" d="M1990.938,196.617v6.645h13.73a1.358,1.358,0,0,0,1.176-.679l1.031-1.785h-13.164v-4.181Z" transform="translate(-681.063 9048.305)" fill="#4a195b"/>
    <path id="패스_106" data-name="패스 106" d="M2090.925,21.406v2.264h4.137v1.623h2.8V8.177h-2.8V21.406h-4.137Z" transform="translate(-773.003 9221.579)" fill="#4a195b"/>
    <path id="패스_107" data-name="패스 107" d="M615.309,30.018l2.7.187q.322-3.083.322-8.967H604.217V23.7h11.358l-.022,1.413-11.335.419v2.326l11.269-.6q-.1,1.986-.178,2.756" transform="translate(594.054 9209.569)" fill="#4a195b"/>
    <path id="패스_108" data-name="패스 108" d="M607.009,196.617h-2.8v6.639h13.43a1.358,1.358,0,0,0,1.176-.679l1.03-1.785H607.009Z" transform="translate(594.057 9048.305)" fill="#4a195b"/>
    <path id="패스_109" data-name="패스 109" d="M578.117,110.025H575.3V112.8h-7.2v2.464h17.552a1.358,1.358,0,0,0,1.176-.679l1.03-1.785h-9.742Z" transform="translate(627.263 9127.928)" fill="#4a195b"/>
    <path id="패스_110" data-name="패스 110" d="M1677.561,148.076h18.606a1.358,1.358,0,0,0,1.176-.679l.957-1.656h-20.739Z" transform="translate(-392.907 9095.086)" fill="#4a195b"/>
    <path id="패스_111" data-name="패스 111" d="M1965.543,131.408h2.706v-3.976q1.216-.053,2.431-.126a1.359,1.359,0,0,0,1.095-.677l1.091-1.889q-5.845.416-13.388.426V127.7q2.418,0,6.065-.152Z" transform="translate(-652.135 9114.397)" fill="#4a195b"/>
    <path id="패스_112" data-name="패스 112" d="M4.753,8.165V10.1H0V12.45H10.567a1.358,1.358,0,0,0,1.176-.679l.962-1.667H7.549V8.165Z" transform="translate(1149.643 9221.59)" fill="#4a195b"/>
    <path id="패스_113" data-name="패스 113" d="M1417.222,29.248A12.376,12.376,0,0,0,1422,33.486l1.763-2.23a8.635,8.635,0,0,1-3.749-2.458,5.482,5.482,0,0,1-1.475-3.708V23.666h2.991a1.357,1.357,0,0,0,1.176-.679l1.01-1.749h-12.375v2.428h4.4v1.518a5.829,5.829,0,0,1-1.554,3.743,8.263,8.263,0,0,1-3.782,2.649l1.974,2.055c.865-.436,3.986-2.6,4.836-4.384" transform="translate(-147.258 9209.569)" fill="#4a195b"/>
    <rect id="사각형_52" data-name="사각형 52" width="176.169" height="34.728" transform="translate(1149.643 9229.098)" fill="none"/>
  </g>
</svg>
