<svg xmlns="http://www.w3.org/2000/svg" width="197.088" height="55.554" viewBox="0 0 197.088 55.554">
  <g id="img_18" transform="translate(-861.503 -9218.987)">
    <path id="패스_20" data-name="패스 20" d="M32.717,48.263V46.535h-3.16V42.7H27.071a5.146,5.146,0,0,1,.381,2.021V55.444h2.1V48.263Z" transform="translate(847.112 9196.288)" fill="#5f5e5e"/>
    <path id="패스_21" data-name="패스 21" d="M41.035,62.622h8V65.9h2.106v-3.28h8.007V60.916H41.035Z" transform="translate(839.688 9186.604)" fill="#5f5e5e"/>
    <path id="패스_22" data-name="패스 22" d="M105.4,42.7a5.108,5.108,0,0,1,.38,2.02v1.815h-3.12l.106,1.727h3.014v7.181h2.105V42.7Z" transform="translate(806.931 9196.288)" fill="#5f5e5e"/>
    <path id="패스_23" data-name="패스 23" d="M48.249,72.96h9.172V78.3h1.917a12.7,12.7,0,0,0,.191-2.275V71.232H48.249Z" transform="translate(835.854 9181.12)" fill="#5f5e5e"/>
    <path id="패스_24" data-name="패스 24" d="M92.289,44.077v-.928H89.93c.085.361.147.676.19.95Z" transform="translate(813.696 9196.049)" fill="#5f5e5e"/>
    <path id="패스_25" data-name="패스 25" d="M214.715,46.478h2.041V44.772h-4.614V43.149h-2.359a5.938,5.938,0,0,1,.212,1.306v.317h-4.614v1.706h2.043" transform="translate(752.322 9196.049)" fill="#5f5e5e"/>
    <path id="패스_26" data-name="패스 26" d="M57.394,48.992a12.475,12.475,0,0,1-.379,2.821h1.815a8.262,8.262,0,0,0,.672-3.242V44.946H48.231v1.709h9.163Z" transform="translate(835.863 9195.094)" fill="#5f5e5e"/>
    <path id="패스_27" data-name="패스 27" d="M10.53,46.478V44.749H6.338v-1.6H3.98a5.806,5.806,0,0,1,.211,1.306v.294H0v1.729H10.53Z" transform="translate(861.503 9196.049)" fill="#5f5e5e"/>
    <path id="패스_28" data-name="패스 28" d="M10.445,72.472H7.959a5.279,5.279,0,0,1,.379,2.022v4.254H19.292V77.024H10.445Z" transform="translate(857.271 9180.461)" fill="#5f5e5e"/>
    <path id="패스_29" data-name="패스 29" d="M91.93,72.472H89.443a5.3,5.3,0,0,1,.379,2.022v4.254h10.952V77.024H91.93Z" transform="translate(813.955 9180.461)" fill="#5f5e5e"/>
    <path id="패스_30" data-name="패스 30" d="M129.413,72.472h-2.487a5.276,5.276,0,0,1,.378,2.022v4.254H138.26V77.024h-8.847Z" transform="translate(794.029 9180.461)" fill="#5f5e5e"/>
    <path id="패스_31" data-name="패스 31" d="M172.235,72.472h-2.484a5.294,5.294,0,0,1,.378,2.022v4.254h10.954V77.024h-8.847Z" transform="translate(771.264 9180.461)" fill="#5f5e5e"/>
    <rect id="사각형_44" data-name="사각형 44" width="17.713" height="1.705" transform="translate(954.535 9248.866)" fill="#5f5e5e"/>
    <path id="패스_32" data-name="패스 32" d="M266.289,42.7a5.133,5.133,0,0,1,.377,2.02v1.815h-1.26V42.7h-2.49a5.079,5.079,0,0,1,.382,2.02V55.444h2.108V48.263h1.26v7.181h2.107V42.7Z" transform="translate(721.736 9196.288)" fill="#5f5e5e"/>
    <path id="패스_33" data-name="패스 33" d="M245.413,46.713v-.127h3.353V44.859h-8.849v1.727h3.35v.127c0,1.791-1.708,3.665-4.321,4.867l1.35,1.1a9.863,9.863,0,0,0,4.045-2.823,9.843,9.843,0,0,0,4.065,2.823l1.349-1.1c-2.634-1.2-4.343-3.076-4.343-4.867" transform="translate(734.479 9195.141)" fill="#5f5e5e"/>
    <path id="패스_34" data-name="패스 34" d="M291.6,51.894V50.378a24.783,24.783,0,0,1-3.372.254h-5.053V46.585h7.58V44.858H280.682a5.1,5.1,0,0,1,.379,2.023v4.846a.661.661,0,0,0,.635.609h6.066a14.448,14.448,0,0,0,3.834-.442" transform="translate(712.292 9195.141)" fill="#5f5e5e"/>
    <path id="패스_35" data-name="패스 35" d="M313.315,48.263V46.535h-3.158V42.7h-2.486a5.119,5.119,0,0,1,.378,2.021V55.444h2.108V48.263Z" transform="translate(697.945 9196.288)" fill="#5f5e5e"/>
    <path id="패스_36" data-name="패스 36" d="M299.889,77.024h-8.848V72.472h-2.483a5.283,5.283,0,0,1,.378,2.023v4.254h10.953Z" transform="translate(708.105 9180.461)" fill="#5f5e5e"/>
    <path id="패스_37" data-name="패스 37" d="M166.969,49.744a11.343,11.343,0,0,0,4.381,2.932l1.348-1.119c-2.653-1.178-4.659-3.032-4.659-4.843v-.126H171.6V44.859h-9.266v1.727h3.559v.126c0,1.811-2,3.665-4.635,4.867l1.349,1.1a11.514,11.514,0,0,0,4.359-2.932" transform="translate(775.777 9195.141)" fill="#5f5e5e"/>
    <path id="패스_38" data-name="패스 38" d="M130.245,52.528H134.9V50.821h-9.2V49.579h9.09V44.946h-11.3v1.708h9.2v1.2h-9.343a8.639,8.639,0,0,1,.254,1.811v2.274a.659.659,0,0,0,.629.592h3.914V54.36h-7.842v1.7h17.753v-1.7h-7.8Z" transform="translate(797.554 9195.094)" fill="#5f5e5e"/>
    <path id="패스_39" data-name="패스 39" d="M188.828,42.7a5.158,5.158,0,0,1,.38,2.02V55.444h2.108V42.7Z" transform="translate(761.122 9196.288)" fill="#5f5e5e"/>
    <path id="패스_40" data-name="패스 40" d="M6.239,49.162a4.244,4.244,0,1,0,4.244,4.244,4.244,4.244,0,0,0-4.244-4.244m0,6.582a2.337,2.337,0,1,1,2.338-2.339,2.34,2.34,0,0,1-2.338,2.339" transform="translate(860.443 9192.854)" fill="#5f5e5e"/>
    <path id="패스_41" data-name="패스 41" d="M212.992,47.189a4.245,4.245,0,1,0,4.246,4.243,4.245,4.245,0,0,0-4.246-4.243m0,6.581a2.338,2.338,0,1,1,2.338-2.337,2.338,2.338,0,0,1-2.338,2.337" transform="translate(750.533 9193.901)" fill="#5f5e5e"/>
    <path id="패스_42" data-name="패스 42" d="M212.992,69.893a4.245,4.245,0,1,0,4.246,4.244,4.245,4.245,0,0,0-4.246-4.244m0,6.58a2.338,2.338,0,1,1,2.338-2.335,2.337,2.337,0,0,1-2.338,2.335" transform="translate(750.533 9181.832)" fill="#5f5e5e"/>
    <path id="패스_43" data-name="패스 43" d="M87.76,44.849A4.246,4.246,0,1,0,92,49.1a4.249,4.249,0,0,0-4.245-4.248m0,6.585A2.338,2.338,0,1,1,90.1,49.1a2.339,2.339,0,0,1-2.338,2.337" transform="translate(817.107 9195.146)" fill="#5f5e5e"/>
    <path id="패스_44" data-name="패스 44" d="M329.148,22.825a53.6,53.6,0,0,1,5.961,6.9c.917,1.164,1.763,2.323,2.521,3.435l2.1-.948c2.619-1.184,5.338-2.429,8.037-3.759l.1-.049a61.062,61.062,0,0,0-10.342-8.422c-2.789,1.039-5.6,1.99-8.378,2.845" transform="translate(686.527 9208.366)" fill="#0080c7"/>
    <path id="패스_45" data-name="패스 45" d="M384.678,8.064c-3.663-1.038-7.795-2.338-11.71-3.855Q370,5.588,366.915,6.845c-.078.032-.156.061-.234.093,4.843,2.427,9.022,4.25,12.009,5.472a65.349,65.349,0,0,0,5.988-4.346" transform="translate(666.575 9216.75)" fill="#0080c7"/>
    <path id="패스_46" data-name="패스 46" d="M17.48,99.184H16.464l-2.679,3.679,2.932,5.1h1.028l-2.886-5.119,2.621-3.66" transform="translate(854.175 9166.262)" fill="#5f5e5e"/>
    <path id="패스_47" data-name="패스 47" d="M25.41,104.061a2.14,2.14,0,0,0-1.95,1.018,5.279,5.279,0,0,0-.007,4.754,2.377,2.377,0,0,0,3.9,0,5.225,5.225,0,0,0,0-4.743,2.133,2.133,0,0,0-1.946-1.025m0,5.978c-.748,0-1.639-.448-1.639-2.586a4.1,4.1,0,0,1,.268-1.577,1.441,1.441,0,0,1,1.371-1,1.425,1.425,0,0,1,1.358,1.009,4.128,4.128,0,0,1,.27,1.57c0,2.137-.885,2.586-1.628,2.586" transform="translate(849.335 9163.668)" fill="#5f5e5e"/>
    <path id="패스_48" data-name="패스 48" d="M45.568,104.061a2.015,2.015,0,0,0-1.86,1.135,5,5,0,0,0-.482,2.458,4.511,4.511,0,0,0,.55,2.209,1.968,1.968,0,0,0,1.779.987,2,2,0,0,0,1.957-1.322l-.654-.25a1.43,1.43,0,0,1-1.233.836,1.3,1.3,0,0,1-1.144-.664,3.4,3.4,0,0,1-.413-1.67c0-.054,0-.273,0-.273H47.8c0-.093.009-.173.009-.307a4.706,4.706,0,0,0-.334-1.927,1.985,1.985,0,0,0-1.907-1.214M47,106.855H44.075l.011-.094a3.24,3.24,0,0,1,.344-1.252,1.323,1.323,0,0,1,1.176-.66,1.241,1.241,0,0,1,1.158.73A2.4,2.4,0,0,1,47,106.665Z" transform="translate(838.525 9163.668)" fill="#5f5e5e"/>
    <path id="패스_49" data-name="패스 49" d="M96.048,104.061a2.015,2.015,0,0,0-1.86,1.135,5,5,0,0,0-.482,2.458,4.521,4.521,0,0,0,.55,2.209,1.968,1.968,0,0,0,1.779.987,2,2,0,0,0,1.957-1.322l-.655-.25a1.43,1.43,0,0,1-1.233.836,1.3,1.3,0,0,1-1.144-.664,3.405,3.405,0,0,1-.413-1.67c0-.054,0-.273,0-.273h3.737c0-.093.009-.173.009-.307a4.706,4.706,0,0,0-.334-1.927,1.985,1.985,0,0,0-1.907-1.214m1.428,2.794H94.555l.011-.094a3.24,3.24,0,0,1,.344-1.252,1.323,1.323,0,0,1,1.176-.66,1.241,1.241,0,0,1,1.158.73,2.4,2.4,0,0,1,.232,1.086Z" transform="translate(811.69 9163.668)" fill="#5f5e5e"/>
    <path id="패스_50" data-name="패스 50" d="M56.984,103.991a2.072,2.072,0,0,0-2.174,1.473c.021.041.164.09.164.09l.593.2a1.491,1.491,0,0,1,1.475-1.007c.733,0,1.156.364,1.158,1a.935.935,0,0,1-.582.922l-1.884.733a1.872,1.872,0,0,0-1.2,1.735,1.808,1.808,0,0,0,.444,1.223,1.638,1.638,0,0,0,1.237.458,2.175,2.175,0,0,0,2.031-1.027v.819h.8l.033-4.672c0-1.292-.7-1.948-2.094-1.948m1.219,3.1v.86a2.009,2.009,0,0,1-1.644,2.133c-.591.028-.95-.137-1.1-.5a1.129,1.129,0,0,1-.078-.422,1.189,1.189,0,0,1,.27-.773,2.352,2.352,0,0,1,.875-.549,8.346,8.346,0,0,0,1.292-.522l.382-.223M54.871,105.4c-.005.015-.012.029-.018.045h0c.006-.016.014-.03.019-.045" transform="translate(832.513 9163.706)" fill="#5f5e5e"/>
    <path id="패스_51" data-name="패스 51" d="M191.875,103.991a2.073,2.073,0,0,0-2.175,1.473c.021.041.164.09.164.09l.593.2a1.491,1.491,0,0,1,1.475-1.007c.733,0,1.156.364,1.158,1a.934.934,0,0,1-.582.922l-1.883.733a1.872,1.872,0,0,0-1.2,1.735,1.808,1.808,0,0,0,.444,1.223,1.637,1.637,0,0,0,1.236.458,2.176,2.176,0,0,0,2.032-1.027v.819h.8l.033-4.672c0-1.292-.7-1.948-2.094-1.948m1.219,3.1v.86a2.009,2.009,0,0,1-1.644,2.133c-.591.028-.95-.137-1.1-.5a1.129,1.129,0,0,1-.078-.422,1.189,1.189,0,0,1,.27-.773,2.352,2.352,0,0,1,.875-.549,8.308,8.308,0,0,0,1.291-.522l.382-.223m-3.332-1.688c-.006.015-.013.029-.018.045h0c.006-.016.014-.03.02-.045" transform="translate(760.805 9163.706)" fill="#5f5e5e"/>
    <path id="패스_52" data-name="패스 52" d="M144.513,104.061a2.14,2.14,0,0,0-1.951,1.018,5.277,5.277,0,0,0-.007,4.755,2.378,2.378,0,0,0,3.9-.006,5.225,5.225,0,0,0,0-4.743,2.133,2.133,0,0,0-1.945-1.025m0,5.978c-.748,0-1.639-.448-1.639-2.586a4.108,4.108,0,0,1,.269-1.577,1.429,1.429,0,0,1,2.73.009,4.173,4.173,0,0,1,.268,1.568c0,2.137-.885,2.586-1.628,2.586" transform="translate(786.02 9163.668)" fill="#5f5e5e"/>
    <path id="패스_53" data-name="패스 53" d="M157.972,108.163A1.675,1.675,0,0,1,156.5,110a1.18,1.18,0,0,1-1.113-.635,2.6,2.6,0,0,1-.154-1.057V104.28h-.877v4.372c0,1.481.723,2.171,1.967,2.171a1.854,1.854,0,0,0,1.648-.748v.583h.877V104.28h-.877Z" transform="translate(779.446 9163.552)" fill="#5f5e5e"/>
    <path id="패스_54" data-name="패스 54" d="M168.554,103.928a1.855,1.855,0,0,0-1.648.748v-.583h-.877v6.378h.877v-3.884a1.676,1.676,0,0,1,1.47-1.84,1.18,1.18,0,0,1,1.113.636,2.6,2.6,0,0,1,.154,1.056v4.032h.877V106.1c0-1.481-.723-2.171-1.967-2.171" transform="translate(773.242 9163.739)" fill="#5f5e5e"/>
    <path id="패스_55" data-name="패스 55" d="M228,103.928a1.855,1.855,0,0,0-1.648.748v-.583h-.878v6.378h.878v-3.884a1.675,1.675,0,0,1,1.469-1.84,1.181,1.181,0,0,1,1.114.636,2.6,2.6,0,0,1,.154,1.056v4.032h.877V106.1c0-1.481-.722-2.171-1.966-2.171" transform="translate(741.639 9163.739)" fill="#5f5e5e"/>
    <path id="패스_56" data-name="패스 56" d="M202.62,108.186c-.438-.077-.5-.447-.5-.8v-4.411h1.239v-.657h-1.239v-1.756h-.879v1.756h-.789v.657h.789V107.9c0,.733.377,1.089,1.149,1.089a3.808,3.808,0,0,0,1.13-.242v-.686a1.912,1.912,0,0,1-.9.123" transform="translate(754.94 9165.527)" fill="#5f5e5e"/>
    <rect id="사각형_45" data-name="사각형 45" width="0.878" height="1.02" transform="translate(959.512 9265.445)" fill="#5f5e5e"/>
    <rect id="사각형_46" data-name="사각형 46" width="0.878" height="6.377" transform="translate(959.512 9267.847)" fill="#5f5e5e"/>
    <path id="패스_57" data-name="패스 57" d="M215.5,104.061a2.14,2.14,0,0,0-1.952,1.018,5.273,5.273,0,0,0-.007,4.754,2.377,2.377,0,0,0,3.9,0,5.217,5.217,0,0,0,0-4.743,2.13,2.13,0,0,0-1.944-1.025m0,5.978c-.749,0-1.64-.448-1.64-2.586a4.092,4.092,0,0,1,.269-1.577,1.428,1.428,0,0,1,2.728.008,4.129,4.129,0,0,1,.269,1.569c0,2.137-.885,2.586-1.627,2.586" transform="translate(748.284 9163.668)" fill="#5f5e5e"/>
    <path id="패스_58" data-name="패스 58" d="M132.735,99.992h3.9v-.808h-4.808v8.779h.912V103.61h3.234v-.8h-3.234Z" transform="translate(791.426 9166.262)" fill="#5f5e5e"/>
    <rect id="사각형_47" data-name="사각형 47" width="0.911" height="8.779" transform="translate(866.084 9265.445)" fill="#5f5e5e"/>
    <path id="패스_59" data-name="패스 59" d="M181.5,102.287a1.818,1.818,0,0,0-1.646-.819,2.1,2.1,0,0,0-1.836,1.085,4.649,4.649,0,0,0-.494,2.182,5.051,5.051,0,0,0,.578,2.5,2.045,2.045,0,0,0,1.638,1.023,1.868,1.868,0,0,0,1.754-.76v.465h.885V99.184H181.5c0,.33,0,3.1,0,3.1m-.231,4.116a1.334,1.334,0,0,1-2.6,0,4.376,4.376,0,0,1-.238-1.538c0-2.127.837-2.573,1.539-2.573,1.017,0,1.533.865,1.533,2.573a4.476,4.476,0,0,1-.231,1.535" transform="translate(767.129 9166.262)" fill="#5f5e5e"/>
    <path id="패스_60" data-name="패스 60" d="M77.255,99.184h-2.94v8.779h.911V104.42h2.15a2.293,2.293,0,0,0,2.219-2.6c0-.983-.3-2.632-2.341-2.632m.111,4.428h-2.14v-3.62h2.148c.789,0,1.3.68,1.3,1.734,0,1.795-1.089,1.886-1.307,1.886" transform="translate(821.997 9166.262)" fill="#5f5e5e"/>
    <path id="패스_61" data-name="패스 61" d="M38.143,103.936a2.642,2.642,0,0,0-1.875.6,2.567,2.567,0,0,0-.645,1.927s0,3.676,0,4.017h.889V106.53c0-1.131.531-1.779,1.455-1.779a1.76,1.76,0,0,1,.754.16c.106-.156.355-.523.5-.744a3.2,3.2,0,0,0-1.083-.231" transform="translate(842.565 9163.734)" fill="#5f5e5e"/>
    <path id="패스_62" data-name="패스 62" d="M88.908,103.936a2.641,2.641,0,0,0-1.874.6,2.567,2.567,0,0,0-.645,1.927s0,3.676,0,4.017h.889V106.53c0-1.131.531-1.779,1.455-1.779a1.76,1.76,0,0,1,.754.16c.106-.156.355-.523.5-.744a3.2,3.2,0,0,0-1.084-.231" transform="translate(815.578 9163.734)" fill="#5f5e5e"/>
    <path id="패스_63" data-name="패스 63" d="M108.21,107.328l-.006,0-1.817-.68a.827.827,0,0,1-.61-.868,1.107,1.107,0,0,1,.381-.827,1.28,1.28,0,0,1,.828-.3,1.392,1.392,0,0,1,1.386,1.024l.741-.277a1.806,1.806,0,0,0-.467-.819,2.232,2.232,0,0,0-1.566-.6,1.933,1.933,0,0,0-2.119,1.934,1.524,1.524,0,0,0,1.176,1.525l1.491.5a1.107,1.107,0,0,1,.806,1.08.986.986,0,0,1-.279.733,1.367,1.367,0,0,1-.911.366,1.572,1.572,0,0,1-1.581-.923c-.174.062-.605.218-.737.267a2.233,2.233,0,0,0,2.118,1.37c.854,0,2.288-.262,2.288-2.01a1.623,1.623,0,0,0-1.122-1.49" transform="translate(805.725 9163.713)" fill="#5f5e5e"/>
    <path id="패스_64" data-name="패스 64" d="M118.955,107.328l-.006,0-1.816-.68a.827.827,0,0,1-.61-.868,1.105,1.105,0,0,1,.381-.827,1.28,1.28,0,0,1,.828-.3,1.392,1.392,0,0,1,1.386,1.024l.741-.277a1.8,1.8,0,0,0-.467-.819,2.232,2.232,0,0,0-1.566-.6,1.933,1.933,0,0,0-2.119,1.934,1.524,1.524,0,0,0,1.176,1.525l1.492.5a1.108,1.108,0,0,1,.806,1.08.985.985,0,0,1-.279.733,1.368,1.368,0,0,1-.911.366,1.573,1.573,0,0,1-1.582-.923l-.737.267a2.233,2.233,0,0,0,2.118,1.37c.855,0,2.289-.262,2.289-2.01a1.623,1.623,0,0,0-1.123-1.49" transform="translate(800.012 9163.713)" fill="#5f5e5e"/>
    <path id="패스_65" data-name="패스 65" d="M341.909,1.972c-1.6-.622-3.166-1.279-4.647-1.971a239.1,239.1,0,0,1-29.006,6.762c.067.027.135.051.2.076,2.7.292,5.409,1.795,7.984,3.941A169.627,169.627,0,0,0,334.71,5.061c.386-.151.767-.3,1.147-.452q3.081-1.253,6.053-2.637" transform="translate(697.634 9218.986)" fill="#003e6e"/>
    <path id="패스_66" data-name="패스 66" d="M375.538,13.142a82.539,82.539,0,0,1-8.414,6.2,90.607,90.607,0,0,1-9.342,5.281v0c-.127.064-.256.123-.384.186-2.69,1.331-5.4,2.569-8.037,3.759l-2.1.949a63.586,63.586,0,0,1,5.057,8.775c.01.017.018.033.027.052,13.157-8.145,24.442-17.813,29.347-23.624-1.688-.4-3.8-.936-6.154-1.585" transform="translate(676.899 9212.001)" fill="#003e6e"/>
    <rect id="사각형_48" data-name="사각형 48" width="197.088" height="55.554" transform="translate(861.503 9218.987)" fill="none"/>
  </g>
</svg>
