<svg xmlns="http://www.w3.org/2000/svg" xmlns:xlink="http://www.w3.org/1999/xlink" width="163.14" height="90.563" viewBox="0 0 163.14 90.563">
  <defs>
    <linearGradient id="linear-gradient" x1="-2.291" y1="0.789" x2="-2.275" y2="0.789" gradientUnits="objectBoundingBox">
      <stop offset="0" stop-color="#a5cd39"/>
      <stop offset="1" stop-color="#00a498"/>
    </linearGradient>
  </defs>
  <g id="img_20" transform="translate(-1433 -9207.999)">
    <path id="패스_114" data-name="패스 114" d="M.013,67.346H.694v2.546H.717c.141-.2.282-.392.415-.564l1.613-1.981h.846l-1.91,2.24L3.74,72.623H2.934L1.2,70.032l-.509.58v2.012H.013Z" transform="translate(1432.995 9182.106)" fill="#203c92"/>
    <path id="패스_115" data-name="패스 115" d="M10.133,71.579a1.856,1.856,0,0,1-1.887,2.013,1.807,1.807,0,0,1-1.817-1.951,1.852,1.852,0,0,1,1.88-2,1.792,1.792,0,0,1,1.824,1.942m-3,.039c0,.83.47,1.456,1.143,1.456.658,0,1.152-.619,1.152-1.472,0-.643-.321-1.45-1.136-1.45s-1.158.753-1.158,1.466" transform="translate(1430.528 9181.226)" fill="#203c92"/>
    <path id="패스_116" data-name="패스 116" d="M13.844,70.9c0-.447-.007-.83-.031-1.184h.6l.031.753h.024a1.144,1.144,0,0,1,1.057-.83,1.189,1.189,0,0,1,.187.017V70.3a1.171,1.171,0,0,0-.234-.014.958.958,0,0,0-.924.876,1.941,1.941,0,0,0-.023.321V73.5h-.69Z" transform="translate(1427.689 9181.226)" fill="#203c92"/>
    <path id="패스_117" data-name="패스 117" d="M18.113,71.738a1.21,1.21,0,0,0,1.3,1.314,2.5,2.5,0,0,0,1.049-.2l.126.494a3.108,3.108,0,0,1-1.269.243,1.767,1.767,0,0,1-1.864-1.92,1.833,1.833,0,0,1,1.778-2.035A1.594,1.594,0,0,1,20.8,71.416a1.727,1.727,0,0,1-.023.322Zm2.02-.494a.979.979,0,0,0-.955-1.113,1.13,1.13,0,0,0-1.057,1.113Z" transform="translate(1426.289 9181.226)" fill="#203c92"/>
    <path id="패스_118" data-name="패스 118" d="M26.756,72.6a6.309,6.309,0,0,0,.055.908h-.619l-.055-.477h-.023a1.413,1.413,0,0,1-1.158.564A1.081,1.081,0,0,1,23.8,72.5c0-.915.814-1.417,2.279-1.408v-.079a.775.775,0,0,0-.861-.868,1.824,1.824,0,0,0-.994.281l-.157-.462a2.446,2.446,0,0,1,1.253-.329c1.158,0,1.44.791,1.44,1.543Zm-.665-1.027c-.752-.015-1.606.118-1.606.855a.6.6,0,0,0,.643.657.958.958,0,0,0,.932-.634.774.774,0,0,0,.031-.219Z" transform="translate(1423.851 9181.226)" fill="#203c92"/>
    <rect id="사각형_53" data-name="사각형 53" width="0.689" height="5.277" transform="translate(1453.398 9249.453)" fill="#203c92"/>
    <path id="패스_119" data-name="패스 119" d="M36.266,70.74c0-.4-.007-.712-.031-1.025h.611l.039.628H36.9a1.4,1.4,0,0,1,1.253-.706c.524,0,1.339.315,1.339,1.613V73.5H38.8V71.32c0-.611-.228-1.119-.876-1.119a1.01,1.01,0,0,0-.971,1.025V73.5h-.689Z" transform="translate(1419.068 9181.226)" fill="#203c92"/>
    <path id="패스_120" data-name="패스 120" d="M43.1,72.809a1.941,1.941,0,0,0,.916.266c.493,0,.728-.243.728-.564s-.2-.5-.7-.689c-.689-.252-1.01-.619-1.01-1.073a1.173,1.173,0,0,1,1.307-1.112,1.75,1.75,0,0,1,.924.235l-.164.5a1.462,1.462,0,0,0-.775-.227c-.407,0-.627.234-.627.516,0,.314.219.455.713.65.649.243.994.571.994,1.135,0,.675-.524,1.145-1.41,1.145a2.16,2.16,0,0,1-1.064-.268Z" transform="translate(1416.493 9181.226)" fill="#203c92"/>
    <path id="패스_121" data-name="패스 121" d="M48.955,68.289V69.2h.986v.526h-.986v2.042c0,.47.133.737.516.737a1.27,1.27,0,0,0,.4-.047l.031.524a1.85,1.85,0,0,1-.611.095.986.986,0,0,1-.745-.291,1.487,1.487,0,0,1-.265-.995V69.723h-.588V69.2h.588v-.7Z" transform="translate(1414.662 9181.744)" fill="#203c92"/>
    <path id="패스_122" data-name="패스 122" d="M53.322,67.765a.411.411,0,0,1-.438.422.405.405,0,0,1-.415-.422.42.42,0,0,1,.43-.431.414.414,0,0,1,.423.431m-.768,1.064h.69v3.79h-.69Z" transform="translate(1412.826 9182.111)" fill="#203c92"/>
    <path id="패스_123" data-name="패스 123" d="M56.149,68.289V69.2h.986v.526h-.986v2.042c0,.47.133.737.516.737a1.27,1.27,0,0,0,.4-.047l.031.524a1.85,1.85,0,0,1-.611.095.985.985,0,0,1-.744-.291,1.484,1.484,0,0,1-.266-.995V69.723h-.587V69.2h.587v-.7Z" transform="translate(1411.896 9181.744)" fill="#203c92"/>
    <path id="패스_124" data-name="패스 124" d="M62.958,72.513c0,.4.007.744.031,1.04h-.611l-.039-.617h-.016a1.416,1.416,0,0,1-1.253.705c-.595,0-1.307-.338-1.307-1.66V69.763h.689v2.092c0,.719.227,1.213.845,1.213a.992.992,0,0,0,.909-.634.95.95,0,0,0,.062-.352V69.763h.689Z" transform="translate(1410.022 9181.178)" fill="#203c92"/>
    <path id="패스_125" data-name="패스 125" d="M67.378,68.289V69.2h.987v.526h-.987v2.042c0,.47.133.737.516.737a1.268,1.268,0,0,0,.4-.047l.032.524a1.857,1.857,0,0,1-.611.095.985.985,0,0,1-.744-.291,1.484,1.484,0,0,1-.266-.995V69.723h-.587V69.2H66.7v-.7Z" transform="translate(1407.579 9181.744)" fill="#203c92"/>
    <path id="패스_126" data-name="패스 126" d="M71.168,71.738a1.21,1.21,0,0,0,1.3,1.314,2.5,2.5,0,0,0,1.049-.2l.126.494a3.108,3.108,0,0,1-1.269.243,1.767,1.767,0,0,1-1.864-1.92,1.833,1.833,0,0,1,1.778-2.035,1.594,1.594,0,0,1,1.566,1.778,1.676,1.676,0,0,1-.023.322Zm2.02-.494a.979.979,0,0,0-.956-1.113,1.13,1.13,0,0,0-1.057,1.113Z" transform="translate(1405.891 9181.226)" fill="#203c92"/>
    <path id="패스_127" data-name="패스 127" d="M83.292,71.579a1.856,1.856,0,0,1-1.887,2.013,1.807,1.807,0,0,1-1.817-1.951,1.852,1.852,0,0,1,1.88-2,1.792,1.792,0,0,1,1.824,1.942m-3,.039c0,.83.47,1.456,1.143,1.456.658,0,1.152-.619,1.152-1.472,0-.643-.321-1.45-1.136-1.45s-1.158.753-1.158,1.466" transform="translate(1402.4 9181.226)" fill="#203c92"/>
    <path id="패스_128" data-name="패스 128" d="M86.809,72.394V69.129h-.524V68.6h.524v-.178a1.818,1.818,0,0,1,.438-1.324,1.318,1.318,0,0,1,.924-.353,1.536,1.536,0,0,1,.588.111l-.094.531a1.012,1.012,0,0,0-.438-.086c-.588,0-.737.51-.737,1.1v.2h.917v.526H87.49v3.264Z" transform="translate(1399.825 9182.337)" fill="#203c92"/>
    <path id="패스_129" data-name="패스 129" d="M93.224,71.741a2.309,2.309,0,0,0,1.213.345c.7,0,1.1-.369,1.1-.9,0-.485-.281-.775-.995-1.042-.861-.315-1.394-.768-1.394-1.5a1.519,1.519,0,0,1,1.707-1.432,2.363,2.363,0,0,1,1.158.257l-.187.555a1.963,1.963,0,0,0-.994-.25c-.721,0-.995.431-.995.79,0,.494.321.736,1.049,1.018.893.345,1.339.776,1.339,1.55,0,.815-.6,1.528-1.84,1.528a2.744,2.744,0,0,1-1.347-.345Z" transform="translate(1397.227 9182.159)" fill="#203c92"/>
    <path id="패스_130" data-name="패스 130" d="M100.24,68.289V69.2h.986v.526h-.986v2.042c0,.47.133.737.516.737a1.27,1.27,0,0,0,.4-.047l.031.524a1.85,1.85,0,0,1-.611.095.984.984,0,0,1-.744-.291,1.484,1.484,0,0,1-.266-.995V69.723h-.587V69.2h.587v-.7Z" transform="translate(1394.944 9181.744)" fill="#203c92"/>
    <path id="패스_131" data-name="패스 131" d="M106.369,72.6a6.311,6.311,0,0,0,.055.908h-.619l-.055-.477h-.023a1.413,1.413,0,0,1-1.158.564,1.081,1.081,0,0,1-1.16-1.09c0-.915.814-1.417,2.279-1.408v-.079a.776.776,0,0,0-.861-.868,1.824,1.824,0,0,0-.994.281l-.157-.462a2.446,2.446,0,0,1,1.253-.329c1.158,0,1.44.791,1.44,1.543ZM105.7,71.57c-.752-.015-1.606.118-1.606.855a.6.6,0,0,0,.643.657.958.958,0,0,0,.932-.634.774.774,0,0,0,.031-.219Z" transform="translate(1393.241 9181.226)" fill="#203c92"/>
    <path id="패스_132" data-name="패스 132" d="M110.01,70.9c0-.447-.007-.83-.031-1.184h.6l.031.753h.024a1.144,1.144,0,0,1,1.057-.83,1.2,1.2,0,0,1,.188.017V70.3a1.184,1.184,0,0,0-.235-.014.958.958,0,0,0-.924.876,1.941,1.941,0,0,0-.023.321V73.5h-.69Z" transform="translate(1390.715 9181.226)" fill="#203c92"/>
    <path id="패스_133" data-name="패스 133" d="M115.059,68.289V69.2h.987v.526h-.987v2.042c0,.47.134.737.517.737a1.266,1.266,0,0,0,.4-.047l.032.524a1.855,1.855,0,0,1-.611.095.985.985,0,0,1-.745-.291,1.484,1.484,0,0,1-.266-.995V69.723H113.8V69.2h.587v-.7Z" transform="translate(1389.247 9181.744)" fill="#203c92"/>
    <path id="패스_134" data-name="패스 134" d="M121.87,72.513c0,.4.007.744.03,1.04h-.611l-.039-.617h-.016a1.415,1.415,0,0,1-1.253.705c-.595,0-1.307-.338-1.307-1.66V69.763h.689v2.092c0,.719.227,1.213.845,1.213a.992.992,0,0,0,.909-.634.95.95,0,0,0,.062-.352V69.763h.69Z" transform="translate(1387.372 9181.178)" fill="#203c92"/>
    <path id="패스_135" data-name="패스 135" d="M125.708,70.954c0-.486-.017-.878-.031-1.238h.611l.038.651h.016a1.472,1.472,0,0,1,1.346-.729,1.715,1.715,0,0,1,1.613,1.918,1.8,1.8,0,0,1-1.729,2.037A1.33,1.33,0,0,1,126.4,73h-.015v2.06h-.681Zm.681,1.008a1.156,1.156,0,0,0,.031.284,1.064,1.064,0,0,0,1.033.806c.729,0,1.151-.6,1.151-1.463,0-.753-.4-1.4-1.128-1.4a1.086,1.086,0,0,0-1.041.846,1.124,1.124,0,0,0-.046.273Z" transform="translate(1384.68 9181.226)" fill="#203c92"/>
    <path id="패스_136" data-name="패스 136" d="M138.794,72.565c-.149-.148-.289-.3-.494-.508a2.179,2.179,0,0,1-1.543.6,1.493,1.493,0,0,1-1.62-1.482,1.74,1.74,0,0,1,1.033-1.543V69.6a1.83,1.83,0,0,1-.439-1.1,1.283,1.283,0,0,1,1.34-1.308,1.094,1.094,0,0,1,1.168,1.12c0,.556-.321.995-1.16,1.41v.03c.446.518.948,1.091,1.284,1.464a3.844,3.844,0,0,0,.51-1.542h.626a4.02,4.02,0,0,1-.76,1.951c.283.3.556.6.87.938Zm-.83-.908c-.312-.343-.9-.985-1.487-1.667a1.3,1.3,0,0,0-.681,1.08,1.043,1.043,0,0,0,1.088,1.065,1.47,1.47,0,0,0,1.08-.478m-1.605-3.225a1.521,1.521,0,0,0,.4.955c.534-.3.878-.588.878-1.041a.622.622,0,0,0-.619-.681.685.685,0,0,0-.659.768" transform="translate(1381.043 9182.165)" fill="#203c92"/>
    <path id="패스_137" data-name="패스 137" d="M2.733,81.9H.689v1.9H2.975v.571H0V79.1H2.858v.571H.689v1.667H2.733Z" transform="translate(1433 9177.587)" fill="#203c92"/>
    <path id="패스_138" data-name="패스 138" d="M6.219,82.494c0-.4-.007-.713-.031-1.026H6.8l.039.627h.017a1.4,1.4,0,0,1,1.253-.706c.524,0,1.339.315,1.339,1.613v2.256H8.756V83.072c0-.611-.227-1.119-.876-1.119a1,1,0,0,0-.925.7,1.016,1.016,0,0,0-.046.321v2.279h-.69Z" transform="translate(1430.621 9176.707)" fill="#203c92"/>
    <path id="패스_139" data-name="패스 139" d="M13.815,80.04v.909H14.8v.524h-.987v2.044c0,.471.133.737.516.737a1.316,1.316,0,0,0,.4-.046l.031.523a1.857,1.857,0,0,1-.611.095.98.98,0,0,1-.744-.291,1.477,1.477,0,0,1-.266-.994V81.474h-.587v-.524h.587v-.7Z" transform="translate(1428.173 9177.227)" fill="#203c92"/>
    <path id="패스_140" data-name="패스 140" d="M17.449,82.651c0-.447-.007-.832-.031-1.184h.6l.031.752h.023a1.148,1.148,0,0,1,1.057-.83,1.452,1.452,0,0,1,.187.017v.649a1.174,1.174,0,0,0-.234-.014.959.959,0,0,0-.925.877,2.008,2.008,0,0,0-.023.321v2.019h-.69Z" transform="translate(1426.303 9176.707)" fill="#203c92"/>
    <path id="패스_141" data-name="패스 141" d="M21.717,83.489a1.211,1.211,0,0,0,1.3,1.315,2.455,2.455,0,0,0,1.049-.2l.126.494a3.077,3.077,0,0,1-1.269.243,1.766,1.766,0,0,1-1.864-1.919,1.834,1.834,0,0,1,1.778-2.036A1.6,1.6,0,0,1,24.4,83.167a1.652,1.652,0,0,1-.023.321Zm2.02-.494a.978.978,0,0,0-.955-1.112,1.129,1.129,0,0,0-1.057,1.112Z" transform="translate(1424.903 9176.707)" fill="#203c92"/>
    <path id="패스_142" data-name="패스 142" d="M27.865,82.7c0-.486-.015-.878-.031-1.237h.611l.039.65H28.5a1.472,1.472,0,0,1,1.346-.729,1.716,1.716,0,0,1,1.613,1.92,1.8,1.8,0,0,1-1.73,2.035,1.33,1.33,0,0,1-1.167-.595h-.015v2.058h-.681Zm.681,1.01a1.078,1.078,0,0,0,.031.282,1.063,1.063,0,0,0,1.033.806c.729,0,1.151-.595,1.151-1.464,0-.753-.4-1.4-1.127-1.4a1.084,1.084,0,0,0-1.042.844,1.14,1.14,0,0,0-.047.275Z" transform="translate(1422.299 9176.707)" fill="#203c92"/>
    <path id="패스_143" data-name="패스 143" d="M35.109,82.651c0-.447-.007-.832-.031-1.184h.6l.031.752h.023a1.147,1.147,0,0,1,1.057-.83,1.472,1.472,0,0,1,.188.017v.649a1.18,1.18,0,0,0-.235-.014.96.96,0,0,0-.925.877,2,2,0,0,0-.023.321v2.019h-.689Z" transform="translate(1419.514 9176.707)" fill="#203c92"/>
    <path id="패스_144" data-name="패스 144" d="M39.377,83.489a1.211,1.211,0,0,0,1.3,1.315,2.454,2.454,0,0,0,1.049-.2l.126.494a3.077,3.077,0,0,1-1.269.243,1.766,1.766,0,0,1-1.864-1.919A1.834,1.834,0,0,1,40.5,81.389a1.6,1.6,0,0,1,1.566,1.778,1.651,1.651,0,0,1-.023.321Zm2.02-.494a.978.978,0,0,0-.956-1.112,1.129,1.129,0,0,0-1.057,1.112Z" transform="translate(1418.113 9176.707)" fill="#203c92"/>
    <path id="패스_145" data-name="패스 145" d="M45.524,82.494c0-.4-.007-.713-.031-1.026H46.1l.039.627h.016a1.4,1.4,0,0,1,1.253-.706c.524,0,1.339.315,1.339,1.613v2.256h-.689V83.072c0-.611-.227-1.119-.876-1.119a1.008,1.008,0,0,0-.971,1.026v2.279h-.69Z" transform="translate(1415.509 9176.707)" fill="#203c92"/>
    <path id="패스_146" data-name="패스 146" d="M52.824,83.489a1.211,1.211,0,0,0,1.3,1.315,2.454,2.454,0,0,0,1.049-.2l.126.494a3.077,3.077,0,0,1-1.269.243,1.766,1.766,0,0,1-1.864-1.919,1.834,1.834,0,0,1,1.778-2.036,1.6,1.6,0,0,1,1.566,1.778,1.756,1.756,0,0,1-.023.321Zm2.02-.494a.978.978,0,0,0-.955-1.112,1.13,1.13,0,0,0-1.057,1.112Z" transform="translate(1412.943 9176.707)" fill="#203c92"/>
    <path id="패스_147" data-name="패스 147" d="M62.147,84.265c0,.4.007.744.031,1.041h-.611l-.039-.619h-.017a1.412,1.412,0,0,1-1.253.706c-.595,0-1.307-.338-1.307-1.659V81.517h.689v2.091c0,.72.227,1.214.845,1.214a.993.993,0,0,0,.909-.634.961.961,0,0,0,.062-.353V81.517h.69Z" transform="translate(1410.334 9176.658)" fill="#203c92"/>
    <path id="패스_148" data-name="패스 148" d="M65.985,82.651c0-.447-.007-.832-.031-1.184h.6l.032.752h.023a1.147,1.147,0,0,1,1.057-.83,1.472,1.472,0,0,1,.188.017v.649a1.18,1.18,0,0,0-.235-.014.959.959,0,0,0-.924.877,1.937,1.937,0,0,0-.023.321v2.019h-.69Z" transform="translate(1407.642 9176.707)" fill="#203c92"/>
    <path id="패스_149" data-name="패스 149" d="M69.913,84.561a1.941,1.941,0,0,0,.916.266c.494,0,.728-.243.728-.563s-.2-.5-.7-.69c-.689-.251-1.01-.619-1.01-1.072a1.174,1.174,0,0,1,1.308-1.113,1.759,1.759,0,0,1,.923.235l-.164.5a1.475,1.475,0,0,0-.775-.227c-.408,0-.627.236-.627.516,0,.314.219.456.713.651.649.243.995.57.995,1.134,0,.675-.525,1.144-1.41,1.144a2.148,2.148,0,0,1-1.065-.267Z" transform="translate(1406.183 9176.707)" fill="#203c92"/>
    <path id="패스_150" data-name="패스 150" d="M75.21,78.643H75.9v2.372h.015a1.3,1.3,0,0,1,.494-.492,1.4,1.4,0,0,1,.7-.189c.51,0,1.323.315,1.323,1.613V84.2h-.689V82.025c0-.611-.226-1.119-.876-1.119a1,1,0,0,0-.925.68.87.87,0,0,0-.047.329V84.2H75.21Z" transform="translate(1404.083 9177.764)" fill="#203c92"/>
    <path id="패스_151" data-name="패스 151" d="M82.99,79.517a.411.411,0,0,1-.438.422.4.4,0,0,1-.415-.422.42.42,0,0,1,.43-.431.414.414,0,0,1,.423.431m-.768,1.065h.69v3.79h-.69Z" transform="translate(1401.42 9177.593)" fill="#203c92"/>
    <path id="패스_152" data-name="패스 152" d="M85.236,82.7c0-.486-.015-.878-.031-1.237h.611l.039.65h.016a1.472,1.472,0,0,1,1.346-.729,1.716,1.716,0,0,1,1.613,1.92,1.8,1.8,0,0,1-1.73,2.035,1.33,1.33,0,0,1-1.167-.595h-.015v2.058h-.681Zm.681,1.01a1.078,1.078,0,0,0,.031.282,1.063,1.063,0,0,0,1.033.806c.729,0,1.151-.595,1.151-1.464,0-.753-.4-1.4-1.127-1.4a1.084,1.084,0,0,0-1.042.844,1.14,1.14,0,0,0-.047.275Z" transform="translate(1400.24 9176.707)" fill="#203c92"/>
    <path id="패스_153" data-name="패스 153" d="M95.238,79.155a8.632,8.632,0,0,1,1.448-.118,3.063,3.063,0,0,1,2.138.657,2.409,2.409,0,0,1,.752,1.9,2.82,2.82,0,0,1-.76,2.051,3.281,3.281,0,0,1-2.341.76,11.318,11.318,0,0,1-1.237-.061Zm.681,4.667a5.828,5.828,0,0,0,.689.031,2.025,2.025,0,0,0,2.248-2.24,1.883,1.883,0,0,0-2.138-2.035,3.858,3.858,0,0,0-.8.07Z" transform="translate(1396.383 9177.611)" fill="#203c92"/>
    <path id="패스_154" data-name="패스 154" d="M103.942,83.489a1.211,1.211,0,0,0,1.3,1.315,2.454,2.454,0,0,0,1.049-.2l.126.494a3.077,3.077,0,0,1-1.269.243,1.766,1.766,0,0,1-1.864-1.919,1.834,1.834,0,0,1,1.778-2.036,1.6,1.6,0,0,1,1.566,1.778,1.652,1.652,0,0,1-.023.321Zm2.02-.494a.978.978,0,0,0-.955-1.112,1.13,1.13,0,0,0-1.057,1.112Z" transform="translate(1393.29 9176.707)" fill="#203c92"/>
    <path id="패스_155" data-name="패스 155" d="M110.08,81.517l.744,2.122c.126.353.227.666.305.979h.023c.086-.313.2-.625.322-.979l.736-2.122h.721l-1.488,3.79h-.657l-1.441-3.79Z" transform="translate(1390.959 9176.658)" fill="#203c92"/>
    <path id="패스_156" data-name="패스 156" d="M116.317,83.489a1.21,1.21,0,0,0,1.3,1.315,2.453,2.453,0,0,0,1.049-.2l.126.494a3.08,3.08,0,0,1-1.269.243,1.766,1.766,0,0,1-1.864-1.919,1.834,1.834,0,0,1,1.778-2.036A1.6,1.6,0,0,1,119,83.167a1.651,1.651,0,0,1-.023.321Zm2.02-.494a.978.978,0,0,0-.956-1.112,1.13,1.13,0,0,0-1.057,1.112Z" transform="translate(1388.531 9176.707)" fill="#203c92"/>
    <rect id="사각형_54" data-name="사각형 54" width="0.69" height="5.559" transform="translate(1508.391 9256.406)" fill="#203c92"/>
    <path id="패스_157" data-name="패스 157" d="M128.748,83.333a1.856,1.856,0,0,1-1.887,2.012,1.807,1.807,0,0,1-1.816-1.951,1.853,1.853,0,0,1,1.879-2,1.793,1.793,0,0,1,1.824,1.944m-3,.038c0,.83.47,1.456,1.143,1.456.657,0,1.152-.618,1.152-1.47,0-.643-.321-1.45-1.136-1.45s-1.158.752-1.158,1.464" transform="translate(1384.923 9176.707)" fill="#203c92"/>
    <path id="패스_158" data-name="패스 158" d="M132.459,82.7c0-.486-.017-.878-.031-1.237h.611l.038.65h.017a1.471,1.471,0,0,1,1.346-.729,1.715,1.715,0,0,1,1.613,1.92,1.8,1.8,0,0,1-1.73,2.035,1.334,1.334,0,0,1-1.168-.595h-.014v2.058h-.682Zm.682,1.01a1.079,1.079,0,0,0,.031.282,1.062,1.062,0,0,0,1.033.806c.729,0,1.152-.595,1.152-1.464,0-.753-.4-1.4-1.128-1.4a1.083,1.083,0,0,0-1.04.844,1.139,1.139,0,0,0-.047.275Z" transform="translate(1382.084 9176.707)" fill="#203c92"/>
    <path id="패스_159" data-name="패스 159" d="M139.7,82.494c0-.4-.016-.713-.031-1.026h.6l.031.62h.023a1.308,1.308,0,0,1,1.2-.7,1.12,1.12,0,0,1,1.065.76h.017a1.492,1.492,0,0,1,.429-.494,1.282,1.282,0,0,1,.83-.266c.51,0,1.253.33,1.253,1.645v2.223h-.673V83.12c0-.737-.273-1.168-.823-1.168a.9.9,0,0,0-.821.62,1.152,1.152,0,0,0-.055.344v2.341h-.673v-2.27c0-.6-.266-1.035-.79-1.035a.949.949,0,0,0-.854.689.918.918,0,0,0-.055.337v2.279H139.7Z" transform="translate(1379.299 9176.707)" fill="#203c92"/>
    <path id="패스_160" data-name="패스 160" d="M150.555,83.489a1.209,1.209,0,0,0,1.3,1.315,2.454,2.454,0,0,0,1.049-.2l.126.494a3.074,3.074,0,0,1-1.269.243,1.766,1.766,0,0,1-1.863-1.919,1.834,1.834,0,0,1,1.778-2.036,1.6,1.6,0,0,1,1.566,1.778,1.812,1.812,0,0,1-.023.321Zm2.019-.494a.977.977,0,0,0-.955-1.112,1.131,1.131,0,0,0-1.058,1.112Z" transform="translate(1375.368 9176.707)" fill="#203c92"/>
    <path id="패스_161" data-name="패스 161" d="M156.7,82.494c0-.4-.007-.713-.031-1.026h.611l.04.627h.014a1.405,1.405,0,0,1,1.253-.706c.525,0,1.339.315,1.339,1.613v2.256h-.689V83.072c0-.611-.227-1.119-.877-1.119a1,1,0,0,0-.923.7.982.982,0,0,0-.047.321v2.279H156.7Z" transform="translate(1372.764 9176.707)" fill="#203c92"/>
    <path id="패스_162" data-name="패스 162" d="M164.3,80.04v.909h.985v.524H164.3v2.044c0,.471.133.737.517.737a1.305,1.305,0,0,0,.4-.046l.031.523a1.849,1.849,0,0,1-.61.095.978.978,0,0,1-.744-.291,1.473,1.473,0,0,1-.267-.994V81.474h-.587v-.524h.587v-.7Z" transform="translate(1370.315 9177.227)" fill="#203c92"/>
    <path id="패스_163" data-name="패스 163" d="M243.084,80.284c.9,1.277,2.042,2.019,2.547,1.663s.185-1.683-.713-2.951-2.042-2.016-2.543-1.659-.189,1.677.71,2.948" transform="translate(1339.904 9178.3)" fill="#f48120"/>
    <path id="패스_164" data-name="패스 164" d="M202.529,114.24a2.265,2.265,0,1,0,.222-3.531,2.54,2.54,0,0,0-.222,3.531" transform="translate(1355.361 9165.563)" fill="#10b0e6"/>
    <path id="패스_165" data-name="패스 165" d="M214.187,121.377c1.514.369,2.9.02,3.092-.774s-.884-1.741-2.4-2.1-2.9-.02-3.1.774.885,1.73,2.4,2.1" transform="translate(1351.582 9162.495)" fill="#10b0e6"/>
    <path id="패스_166" data-name="패스 166" d="M225.748,115.819c1.886-.52,3.158-1.893,2.836-3.063s-2.117-1.683-4.007-1.159-3.166,1.889-2.849,3.061,2.122,1.687,4.021,1.161" transform="translate(1347.769 9165.172)" fill="#10b0e6"/>
    <path id="패스_167" data-name="패스 167" d="M225.232,122.762c1.3-.316,2.3-.771,2.234-1.024s-1.16-.2-2.449.108-2.3.767-2.236,1.02,1.157.209,2.452-.1" transform="translate(1347.347 9161.256)" fill="#10b0e6"/>
    <path id="패스_168" data-name="패스 168" d="M250.23,93.849c-.1-1.33-.4-2.385-.666-2.367s-.38,1.113-.27,2.443.4,2.389.656,2.367.383-1.111.28-2.443" transform="translate(1337.166 9172.827)" fill="#a5cd39"/>
    <path id="패스_169" data-name="패스 169" d="M232.223,108.584c1.208,1.026,3.291.552,4.653-1.052s1.49-3.74.283-4.763-3.293-.555-4.656,1.052-1.491,3.74-.281,4.763" transform="translate(1344.034 9168.696)" fill="#a5cd39"/>
    <path id="패스_170" data-name="패스 170" d="M234.6,91.826a3.421,3.421,0,1,0-.349-4.783,3.4,3.4,0,0,0,.349,4.783" transform="translate(1343.252 9175.002)" fill="#f48120"/>
    <rect id="사각형_55" data-name="사각형 55" width="163.138" height="76.286" transform="translate(1433 9208)" fill="none"/>
    <rect id="사각형_56" data-name="사각형 56" width="40.632" height="50.964" transform="matrix(0.411, -0.911, 0.911, 0.411, 1514.807, 9277.601)" fill="url(#linear-gradient)"/>
    <path id="패스_171" data-name="패스 171" d="M173.008,86.854a2.772,2.772,0,0,1-.978-.131c-1.393-.678-.961-2.1-.86-3.018.06-.546,0-.913-.622-.841a18.735,18.735,0,0,1-.682,2.088,20.411,20.411,0,0,1-2.508,4.552.675.675,0,0,0-.066.1h-.006a51.269,51.269,0,0,1-4.249,5.476c-4.842,5.207-10.2,6.447-15.333,5.076a20.753,20.753,0,0,0,6.9,3.285,46.673,46.673,0,0,0,13.859-11.42A43.44,43.44,0,0,1,156.444,103.9c.508.109,1.011.2,1.533.293A46.222,46.222,0,0,0,169.19,92.76a43.487,43.487,0,0,1-9.5,11.662q.745.083,1.489.117a45.6,45.6,0,0,0,8.8-11.093,43.772,43.772,0,0,1-7.256,11.13c.487,0,.97-.022,1.448-.052a44.794,44.794,0,0,0,6.646-10.467,43.563,43.563,0,0,1-5.285,10.344c.483-.059.949-.133,1.413-.219a45,45,0,0,0,4.771-9.591,43.906,43.906,0,0,1-3.6,9.319c.47-.12.939-.27,1.386-.427a45.094,45.094,0,0,0,3.152-8.436,44.645,44.645,0,0,1-2.181,8.041,11.068,11.068,0,0,0,1.362-.716,44.272,44.272,0,0,0,1.786-6.946,45.518,45.518,0,0,1-1.02,6.44,9.7,9.7,0,0,0,.792-.648c1.837-1.668,2.911-4.181,4.109-6.9,3.156-2.412,6.273-.78,9.441-3.187-.263-1.293-1.469-1.146-2.81-1-1.189.13-2.482.26-3.318-.612a12.043,12.043,0,0,1,3.8-.337,9.038,9.038,0,0,0,5.424-1.078c-.943-1.153-2.394-1.061-3.694-.968-1.323.094-2.489.188-2.8-1.032a13.2,13.2,0,0,1,2.745-.013c1.768.116,3.537.231,5.325-1.038-.293-1.256-1.762-1.143-3.272-1.03-1.63.121-3.308.243-3.606-1.356a7.314,7.314,0,0,1,3.488.073c2.217.351,4.427.7,4.2-1.509-4.591-.563-9.193-.811-13.794-.945-2.682,2.057-3.025,6.478-5.628,6.571" transform="translate(1376.211 9177.133)" fill="none"/>
    <path id="패스_172" data-name="패스 172" d="M235.366,16.131a58.169,58.169,0,0,1-15.817,12.455A61.786,61.786,0,0,0,235.1,13.843c-.1-.7-.222-1.383-.359-2.06a57.966,57.966,0,0,1-16.173,15.81A62.3,62.3,0,0,0,234.156,9.305,27.987,27.987,0,0,0,229.917,0c1.721,6.9-.065,14.037-7.13,20.411L204.053,36.79l-.009-.015c-7.6,6.167-18.435,6.127-15.27,16.53,2.925-2.282,2.656-5.006,5.071-6.462,3.42-2.071,11.825,1.029,14.953.575a13.079,13.079,0,0,0,1.987-2.608c6.131-3.6,15.446-5.567,19.987-10.407a11.337,11.337,0,0,0,.876-1.052,60.347,60.347,0,0,1-8.632,1.234,59.267,59.267,0,0,0,9.339-2.239,15.4,15.4,0,0,0,.976-1.8,59.577,59.577,0,0,1-10.8,2.731,59.723,59.723,0,0,0,11.354-4.033c.228-.6.433-1.21.607-1.845a59.286,59.286,0,0,1-12.55,4.619,60.6,60.6,0,0,0,12.933-6.18c.13-.622.24-1.248.328-1.882A58.552,58.552,0,0,1,221.241,30.8a60.314,60.314,0,0,0,14.166-8.668c.05-.635.082-1.283.1-1.937a58.564,58.564,0,0,1-15.062,9.468,61.091,61.091,0,0,0,15.044-11.53q-.038-1-.118-2" transform="translate(1360.638 9208)" fill="#203c92"/>
    <path id="패스_173" data-name="패스 173" d="M42.814,23.783H37.666l-.016-.062A5.467,5.467,0,0,0,35.811,20.9a6.6,6.6,0,0,0-4.386-1.584,6.744,6.744,0,0,0-4.44,1.584,5.5,5.5,0,0,0-1.857,3l-.013.066H20.692V23.9h-.01V21.014a1.734,1.734,0,0,0-3.468.039v8.707L17.1,29.7a8.02,8.02,0,0,0-3.626-.835h-.085V27.414l-.262-.055a6.765,6.765,0,0,1-2.8-1.216,4.4,4.4,0,0,1-1.448-2.028L8.837,24h4.447V21.1H8.558v-.606a1.734,1.734,0,0,0-3.468.038V21.1H.416V24H4.7l-.03.108a4.2,4.2,0,0,1-1.341,2.026A6.439,6.439,0,0,1,.579,27.358l-.263.055v3.2l.37-.042a9.112,9.112,0,0,0,3.167-.983,7.179,7.179,0,0,0,2.939-2.553l.076-.118.066.122A6.519,6.519,0,0,0,9.4,29.415l.425.279-.38.212a8.043,8.043,0,0,0-1.315.936A6.6,6.6,0,0,0,5.717,36.1a6.675,6.675,0,0,0,2.411,5.28,7.856,7.856,0,0,0,5.343,1.978,7.925,7.925,0,0,0,5.342-1.977A6.619,6.619,0,0,0,21.281,36.1a6.777,6.777,0,0,0-.583-2.81l-.006-6.267h4.575l.02.057a5.642,5.642,0,0,0,1.7,2.418,6.721,6.721,0,0,0,4.434,1.6,6.6,6.6,0,0,0,4.386-1.606A5.6,5.6,0,0,0,37.6,26.874l.018-.058h5.2v7.447H30.644V32.455h-3.42v7.736a2.031,2.031,0,0,0,.449,1.5,1.815,1.815,0,0,0,1.248.356H44.588a1.689,1.689,0,0,0,1.216-.375,1.966,1.966,0,0,0,.479-1.5V37.14h5.838v3.052a2.036,2.036,0,0,0,.448,1.5,1.793,1.793,0,0,0,1.249.356H71.46V31.848h8.9l-.161.146a5.643,5.643,0,0,0-2.01,4.35,6.414,6.414,0,0,0,2.447,5.15,8.212,8.212,0,0,0,5.441,1.942,7.928,7.928,0,0,0,5.287-1.942,6.413,6.413,0,0,0,2.452-5.15,5.688,5.688,0,0,0-1.992-4.351l-.158-.145h14.412v4.589h3.32V31.848h6.245v1.8h-4.261v2.723h4.236v2.616H103.476v-4.61h-3.42v5.817a2.031,2.031,0,0,0,.449,1.5,1.819,1.819,0,0,0,1.249.356h17.361V21.014a1.733,1.733,0,0,0-3.467.039v7.866h-5.993l.207-.152a4.585,4.585,0,0,0,2.054-3.856,5.061,5.061,0,0,0-1.981-4.114,6.525,6.525,0,0,0-4.283-1.529,6.766,6.766,0,0,0-4.411,1.526,5.036,5.036,0,0,0-2.012,4.117,4.585,4.585,0,0,0,2.057,3.856l.207.152H91.352l.111-.138a4.1,4.1,0,0,0,.961-2.655,3.57,3.57,0,0,0-.248-1.332,4.579,4.579,0,0,0-.663-1.174l-.1-.136h4.806V20.737H87.9v-.131a1.848,1.848,0,1,0-3.7.042v.089H75.945v2.748h4.537l-.086.132a5.339,5.339,0,0,0-.588,1.184,4.789,4.789,0,0,0-.195,1.326,4.112,4.112,0,0,0,.941,2.655l.106.138H71.468V21.014A1.733,1.733,0,0,0,68,21.053v8.414h-.009v9.518h-12.4V34.21h-9.3v-13.2a1.734,1.734,0,0,0-3.467.039m-26.558,17.8a4.022,4.022,0,0,1-5.51-.006,3.681,3.681,0,0,1,0-5.492A3.983,3.983,0,0,1,13.5,32.287a4.024,4.024,0,0,1,2.772,1.061,3.8,3.8,0,0,1,.939,1.291l.046.113A3.7,3.7,0,0,1,17.5,36.1a3.581,3.581,0,0,1-1.238,2.75M31.4,28.006a2.905,2.905,0,0,1-3.018-2.777,3.03,3.03,0,0,1,6.038,0,2.9,2.9,0,0,1-3.02,2.777m11.435,11H30.644V37.14H42.839ZM83.967,24.3a3,3,0,0,1,2.09-.715,2.96,2.96,0,0,1,2.047.721,2.374,2.374,0,0,1,.822,1.867,2.423,2.423,0,0,1-.831,1.872,2.882,2.882,0,0,1-2.039.766,2.954,2.954,0,0,1-2.1-.776,2.408,2.408,0,0,1-.824-1.862,2.364,2.364,0,0,1,.835-1.873m4.981,14.87A4.179,4.179,0,0,1,86,40.325a4.267,4.267,0,0,1-2.972-1.156,3.935,3.935,0,0,1,0-5.826A4.329,4.329,0,0,1,86,32.21a4.227,4.227,0,0,1,2.948,1.133,3.878,3.878,0,0,1,0,5.831m18.61-12.309a2.788,2.788,0,0,1-2.037.838,2.868,2.868,0,0,1-2.1-.852,2.615,2.615,0,0,1-.82-1.941,2.807,2.807,0,0,1,.817-2.013,2.918,2.918,0,0,1,2.107-.832,2.851,2.851,0,0,1,2.046.824,2.742,2.742,0,0,1,.879,2.021,2.612,2.612,0,0,1-.888,1.955" transform="translate(1432.879 9200.78)" fill="#203c92"/>
    <path id="패스_174" data-name="패스 174" d="M87.387,24.36a6.824,6.824,0,0,1-1.2,3.34,5.244,5.244,0,0,1-3.179,1.783l-.266.054V32.81l.377-.05a8.863,8.863,0,0,0,3.19-1.1,7.67,7.67,0,0,0,2.937-2.833l.073-.132.071.133a7.149,7.149,0,0,0,2.729,2.808,8.7,8.7,0,0,0,3.371,1.153l.375.049v-3.3l-.266-.054a5.353,5.353,0,0,1-3.2-1.775,6.533,6.533,0,0,1-1.261-3.348l-.01-.094h4.632V21.207H82.652v3.059H87.4Z" transform="translate(1401.222 9199.847)" fill="#203c92"/>
    <rect id="사각형_57" data-name="사각형 57" width="163.138" height="76.286" transform="translate(1433 9208)" fill="none"/>
  </g>
</svg>
