<svg xmlns="http://www.w3.org/2000/svg" width="198.818" height="39.967" viewBox="0 0 198.818 39.967">
  <g id="img_17" transform="translate(-584 -9227)">
    <path id="패스_11" data-name="패스 11" d="M30.853,19.071A7.206,7.206,0,0,0,20.6,21.223,7.212,7.212,0,0,1,7.567,19.24h0a.522.522,0,0,0-.02-.075.812.812,0,0,0-.023-.09,9.3,9.3,0,0,1-.369-2.866c0-6.464,6.63-13.66,16.182-13.66A18.217,18.217,0,0,1,40.153,14.132c-.024-.073-.047-.146-.073-.22A20.6,20.6,0,0,0,0,20.594c0,10.167,7.332,18.87,17.5,18.87A16.545,16.545,0,0,0,33.571,28.646a7.94,7.94,0,0,0-2.718-9.575" transform="translate(584 9227)" fill="#002b51"/>
    <path id="패스_12" data-name="패스 12" d="M48.155,17.338A18.163,18.163,0,0,0,31.206,5.352c-9.552,0-16.182,7.2-16.182,13.661a9.3,9.3,0,0,0,.369,2.866,6.08,6.08,0,0,1-.19-1.471c0-6.73,6.741-11.395,13.669-11.395a16.981,16.981,0,0,1,16.982,16.98A18.72,18.72,0,0,1,35.475,42.765l0,.006A20.63,20.63,0,0,0,48.155,17.338" transform="translate(576.127 9224.195)" fill="#da0021"/>
    <path id="패스_13" data-name="패스 13" d="M126.065,32.288v2.265h-8.087V37.74h-2.61V34.553H107.12V32.288ZM108.643,22.261h15.9v7.924h-15.9Zm2.566,13.746v4h13.586v2.264H108.643V36.007ZM122,24.455H111.163V28.06H122Z" transform="translate(527.867 9215.335)" fill="#464545"/>
    <path id="패스_14" data-name="패스 14" d="M164.794,40.126H151.277v-2.24h5.431V35.319a4.41,4.41,0,0,1-.694-.23A5.4,5.4,0,0,1,154.4,34.1a4.811,4.811,0,0,1-1.084-1.493,4.178,4.178,0,0,1-.394-1.791,4.1,4.1,0,0,1,.394-1.777,4.847,4.847,0,0,1,1.084-1.48,5.009,5.009,0,0,1,1.606-1,5.287,5.287,0,0,1,1.951-.358,5.179,5.179,0,0,1,1.94.358,4.771,4.771,0,0,1,1.574,1,5,5,0,0,1,1.1,1.48,3.994,3.994,0,0,1,.406,1.777,4.074,4.074,0,0,1-.406,1.791,4.956,4.956,0,0,1-1.1,1.493,5.156,5.156,0,0,1-1.574.992,4.189,4.189,0,0,1-.761.255v2.541h5.66Zm-8.271-16.5v-2.2h2.773v2.2h5.015v2.195h-12.8V23.629Zm3.952,7.163a2.36,2.36,0,0,0-.741-1.744,2.594,2.594,0,0,0-3.606,0,2.376,2.376,0,0,0-.738,1.744,2.418,2.418,0,0,0,.738,1.755,2.566,2.566,0,0,0,3.606,0,2.4,2.4,0,0,0,.741-1.755m8.317,11.391H166.25V21.572h2.542v8.941h2.633v2.472h-2.633Z" transform="translate(504.729 9215.769)" fill="#464545"/>
    <path id="패스_15" data-name="패스 15" d="M195.958,25.825V23.63h4.366V21.435h2.7V23.63h4.114v2.195h-4.668l4.9,12.961-2.242.763-3.442-9.335-3.441,9.5-2.314-.739,4.924-13.148ZM208.849,21.6h2.379V42.068h-2.379V32.108h-2.68V29.776h2.68Zm4.321-.022h2.472V42.184h-2.472Z" transform="translate(481.328 9215.768)" fill="#464545"/>
    <path id="패스_16" data-name="패스 16" d="M260.052,35.444V41.8h-2.566V37.637H243.671V35.444h3.28l.024-2.406h-4.343V30.821h18.946v2.218h-4.368v2.406ZM257.187,25.37a4.13,4.13,0,0,1-.416,1.825,4.808,4.808,0,0,1-2.7,2.529,5.1,5.1,0,0,1-1.963.38,5.188,5.188,0,0,1-1.977-.38,5.553,5.553,0,0,1-1.629-1.005,5.609,5.609,0,0,1-1.084-1.524,4.191,4.191,0,0,1,0-3.651,5.653,5.653,0,0,1,1.084-1.525,5.274,5.274,0,0,1,1.629-1.029,5.2,5.2,0,0,1,1.977-.38,5.111,5.111,0,0,1,1.963.38,5.338,5.338,0,0,1,1.616,1.029,5.658,5.658,0,0,1,1.086,1.525,4.129,4.129,0,0,1,.416,1.825m-7.879,10.074h5.546V33.038h-5.52ZM254.67,25.37a2.373,2.373,0,0,0-.753-1.769,2.511,2.511,0,0,0-1.813-.727,2.549,2.549,0,0,0-1.826.727,2.36,2.36,0,0,0-.764,1.769,2.39,2.39,0,0,0,.764,1.779,2.531,2.531,0,0,0,1.826.739,2.493,2.493,0,0,0,1.813-.739,2.4,2.4,0,0,0,.753-1.779" transform="translate(456.857 9216.2)" fill="#464545"/>
    <path id="패스_17" data-name="패스 17" d="M300.282,31.593v2.24H287.969v-2.24h4.158V27.109h2.427v4.483Zm-3.21-1.9V24.429h-8.526V22.142h11.021V29.7Zm-5.614,5.775v4.184h14.255v2.262H288.892V35.472Zm13.7-.923h-2.563V21.725h2.563v5.038h2.635V29.21h-2.635Z" transform="translate(433.1 9215.615)" fill="#464545"/>
    <path id="패스_18" data-name="패스 18" d="M337.461,30.574v-4.02h2.425v4.02h5.732v2.149H333.3V30.574Zm4.945-1.848v-4.32h-8.528V22.142H344.9v6.584Zm6.238,9.519a4.116,4.116,0,0,1-.416,1.837,5.39,5.39,0,0,1-1.108,1.512,5.049,5.049,0,0,1-1.592,1.029,5.366,5.366,0,0,1-3.975,0,5.3,5.3,0,0,1-1.62-1.029,5.187,5.187,0,0,1-1.1-1.512,4.187,4.187,0,0,1-.407-1.837,4.35,4.35,0,0,1,.407-1.86,5.135,5.135,0,0,1,1.1-1.536,5.558,5.558,0,0,1,1.62-1,5.366,5.366,0,0,1,3.975,0,4.964,4.964,0,0,1,2.7,2.54,4.276,4.276,0,0,1,.416,1.86m-2.52-.023a2.45,2.45,0,0,0-.761-1.812,2.51,2.51,0,0,0-1.825-.752,2.543,2.543,0,0,0-1.838.752,2.434,2.434,0,0,0-.773,1.812,2.359,2.359,0,0,0,.773,1.791,2.592,2.592,0,0,0,1.838.728,2.558,2.558,0,0,0,1.825-.728,2.375,2.375,0,0,0,.761-1.791m4.367-5.152h-2.563V21.725h2.563v4.206h2.635v2.4h-2.635Z" transform="translate(409.345 9215.615)" fill="#464545"/>
    <path id="패스_19" data-name="패스 19" d="M377.895,35.109H396.84v2.265h-8.2v5.313h-2.565V37.373h-8.178Zm4.042-10.075h10.837V22.424h2.54v9.911H379.42V22.424h2.517Zm10.837,2.22H381.937v2.842h10.838Z" transform="translate(385.978 9215.25)" fill="#464545"/>
    <rect id="사각형_43" data-name="사각형 43" width="198.817" height="39.967" transform="translate(584 9227)" fill="none"/>
  </g>
</svg>
