<svg xmlns="http://www.w3.org/2000/svg" width="195.592" height="40.548" viewBox="0 0 195.592 40.548">
  <g id="img_13" transform="translate(-863 -9087)">
    <path id="패스_4" data-name="패스 4" d="M107.616,16.811H92.258a2.459,2.459,0,0,1-1.689-.662,2.386,2.386,0,0,1-.662-1.5,2.285,2.285,0,0,1,.662-1.6,2.162,2.162,0,0,1,1.577-.662h23.438V6.181H91.3a9.1,9.1,0,0,0-6.753,2.488,8.3,8.3,0,0,0-2.6,6.137,8.633,8.633,0,0,0,2.6,6.27A9.076,9.076,0,0,0,91.3,23.7h16.131a2.309,2.309,0,0,1,1.759.752,2.481,2.481,0,0,1-.024,3.536,2.514,2.514,0,0,1-1.848.752H83.564V34.97h24.052a9.31,9.31,0,0,0,6.934-2.739,8.9,8.9,0,0,0,2.67-6.479,8.7,8.7,0,0,0-2.67-6.318,9.288,9.288,0,0,0-6.934-2.623" transform="translate(859.01 9086.698)" fill="#002c83"/>
    <path id="패스_5" data-name="패스 5" d="M203.976,12.386V6.18H172.193V34.969h31.782V28.74H180.025V23.69h23.951V17.461H180.038V12.386Z" transform="translate(854.616 9086.698)" fill="#002c83"/>
    <path id="패스_6" data-name="패스 6" d="M38.872,31.174a21.93,21.93,0,0,0,16.755,9.778A19.7,19.7,0,0,0,68.28,37.485a18.606,18.606,0,0,0,8.394-16.523c-.365-6.5-6.074-12.178-11.822-11.951a9.368,9.368,0,0,0-7.882,4.563c2.381.336,5.716,1.769,6.7,5.389,1,3.676-1.745,7.5-4.85,8.6a.164.164,0,0,0,.171.243c4.515-.566,9.652-3.674,8.6-11.84a15.058,15.058,0,0,1-2.913,13.606,12.261,12.261,0,0,1-10.246,3.881.221.221,0,1,0-.054.439,15.3,15.3,0,0,0,12.086-2.536,14.187,14.187,0,0,0,5.743-10.7c.543,6.331-2.087,12.087-9.035,15.562-7.831,3.917-18.964.635-23.822-5.346-.381-.471-.778-.207-.472.3" transform="translate(861.112 9086.562)" fill="#002c83"/>
    <path id="패스_7" data-name="패스 7" d="M74.486,9.812A21.936,21.936,0,0,0,57.729.035,19.71,19.71,0,0,0,45.077,3.5a18.608,18.608,0,0,0-8.393,16.523C37.06,26.709,42.714,32.2,48.5,31.975a9.371,9.371,0,0,0,7.883-4.562c-2.381-.336-5.717-1.77-6.7-5.389-1-3.676,1.747-7.506,4.851-8.6a.162.162,0,0,0-.17-.241c-4.515.564-9.652,3.673-8.6,11.839a15.065,15.065,0,0,1,2.912-13.606A12.261,12.261,0,0,1,58.933,7.532a.221.221,0,1,0,.054-.439A15.29,15.29,0,0,0,46.9,9.629a14.183,14.183,0,0,0-5.744,10.7C40.613,14,43.246,8.241,50.191,4.766c7.832-3.917,18.964-.635,23.823,5.347.381.471.776.207.472-.3" transform="translate(861.215 9087)" fill="#dc0017"/>
    <path id="패스_8" data-name="패스 8" d="M17.791,19.686,36.633,34.969H25.49L7.887,21.242V34.969H0V6.18H7.887V18.425L24.081,6.18H34.894Z" transform="translate(863 9086.698)" fill="#002c83"/>
    <path id="패스_9" data-name="패스 9" d="M157.131,34.969V18.248l-9.876,16.286h-6.775l-9.9-16.286V34.969h-7.64V6.181h8.075L144.06,27.417,157.131,6.181h7.848V34.969Z" transform="translate(857.014 9086.698)" fill="#002c83"/>
    <rect id="사각형_41" data-name="사각형 41" width="195.591" height="40.548" transform="translate(863 9087)" fill="none"/>
  </g>
</svg>
