<svg xmlns="http://www.w3.org/2000/svg" width="116.535" height="33.518" viewBox="0 0 116.535 33.518">
  <path id="img_15" d="M30.72,0H9.038C3.421,0,0,2.6,0,7.981V33.518H9.593V9.255h5.5V33.518h9.571V9.255h5.5V33.518H39.76V7.981C39.76,2.6,36.336,0,30.72,0M93.8,24.434V9.19h22.6V.005H92.744c-5.8,0-8.858,3.083-8.858,7.914V25.737c0,4.395,2.549,7.781,9.021,7.781h23.626V24.434ZM68.85,15.629v8.751H54.638V9.228H68.85V15.6c4.952,0,10.35-2.008,10.35-7.558C79.2,2.6,75.015.1,68.34,0c-.034,0-23.379,0-23.445,0V33.518H68.536c6.693,0,12.671-2.447,12.671-8.927,0-6.4-5.273-8.962-12.357-8.962" fill="#253643"/>
</svg>
