<svg xmlns="http://www.w3.org/2000/svg" width="116.7" height="58.549" viewBox="0 0 116.7 58.549">
  <g id="img_11" transform="translate(-348 -9078)">
    <path id="패스_1" data-name="패스 1" d="M23.319,55.226c1.726.524,2.282,1.222,2.282,2.193,0,.839-.632,1.591-2.189,1.591H0v8.57H22.331c7.7,0,12.026-3.85,12.026-10.055,0-5.9-3.326-8.387-9.385-10.256l-13.04-4.008c-1.9-.578-2.762-1.3-2.668-2.354.116-1.281,1.134-1.71,2.994-1.71H34.067V30.626H12.524C4.751,30.626.3,34,.012,40.238c-.228,4.886,2.961,8.81,9.145,10.688Z" transform="translate(348 9068.441)" fill="#0091d8"/>
    <path id="패스_2" data-name="패스 2" d="M64.326,0V39.8c0,5.614,3.8,10.082,10.163,10.082S84.68,45.418,84.68,39.8,80.932,29.639,74.489,29.639H68.7V21.065h5.79c11.222,0,18.844,8.391,18.844,18.742A18.337,18.337,0,0,1,74.489,58.549c-11.295,0-18.843-8.391-18.843-18.742V0Z" transform="translate(330.632 9078)" fill="#0091d8"/>
    <path id="패스_3" data-name="패스 3" d="M133.784,29.956a18.462,18.462,0,0,0-18.8,18.857,18.552,18.552,0,0,0,18.8,18.857,19.89,19.89,0,0,0,5.774-.839V58.014a16.921,16.921,0,0,1-5.774.967,9.9,9.9,0,0,1-10.169-10.168,9.811,9.811,0,0,1,10.169-10.169c6.385,0,10.17,4.553,10.17,10.169V67.371h8.635V48.813c0-10.414-6.941-18.857-18.8-18.857" transform="translate(312.111 9068.65)" fill="#0091d8"/>
    <rect id="사각형_40" data-name="사각형 40" width="116.7" height="58.549" transform="translate(348 9078)" fill="none"/>
  </g>
</svg>
