<svg id="Layer_1" data-name="Layer 1" xmlns="http://www.w3.org/2000/svg" viewBox="0 0 637 491.62"><defs><style>.cls-1{fill:none;stroke:#999;stroke-miterlimit:10;stroke-width:8px;}</style></defs><path class="cls-1" d="M571.6,129.3H68.4A63.08,63.08,0,0,0,5.5,192.2V443.8a63.08,63.08,0,0,0,62.9,62.9H194.49a62.93,62.93,0,0,0,57.37-37.08L279.14,409c7.74-17.2,23.59-28.14,40.92-28.14S353.23,391.83,361,409l27.28,60.57a63,63,0,0,0,57.39,37.1h126a63.08,63.08,0,0,0,62.9-62.9V192.2A63.08,63.08,0,0,0,571.6,129.3ZM162.75,365.18a62.87,62.87,0,0,1-62.9-62.9c0-34.77,28.13-62,62.9-62s62.9,28.13,62.9,62S197.54,365.18,162.75,365.18Zm314.5,0a62.87,62.87,0,0,1-62.9-62.9c0-34.77,28.13-62,62.9-62s62.9,28.13,62.9,62S512,365.18,477.25,365.18Z" transform="translate(-1.5 -19.08)"/><path class="cls-1" d="M309.39,409.19,285.1,452.52a12.17,12.17,0,0,0,10.62,18.11h48.56a12.17,12.17,0,0,0,10.62-18.11l-24.29-43.33A12.16,12.16,0,0,0,309.39,409.19Z" transform="translate(-1.5 -19.08)"/><path class="cls-1" d="M521,23.08H117c-18.59,0-49.66,35.43-49.66,79.12H572.67C572.67,58.51,539.6,23.08,521,23.08Z" transform="translate(-1.5 -19.08)"/></svg>